<?xml version="1.0" encoding="utf-8"?>
<!-- Generator: Adobe Illustrator 15.0.0, SVG Export Plug-In . SVG Version: 6.00 Build 0)  -->
<!DOCTYPE svg PUBLIC "-//W3C//DTD SVG 1.1//EN" "http://www.w3.org/Graphics/SVG/1.1/DTD/svg11.dtd">
<svg version="1.1" id="Layer_1" xmlns="http://www.w3.org/2000/svg" xmlns:xlink="http://www.w3.org/1999/xlink" x="0px" y="0px"
	 width="16px" height="16px" viewBox="0 0 16 16" enable-background="new 0 0 16 16" xml:space="preserve">
<g>
	<g>
		<path fill="#4D4D4D" d="M8,15.742c-4.273,0-7.75-3.477-7.75-7.75S3.727,0.242,8,0.242s7.75,3.477,7.75,7.75
			S12.273,15.742,8,15.742z M8,1.742c-3.446,0-6.25,2.804-6.25,6.25s2.804,6.25,6.25,6.25s6.25-2.804,6.25-6.25
			S11.446,1.742,8,1.742z"/>
		<g>
			<path fill="#4D4D4D" d="M7.997,15.759l-3.039-0.684l-1.743-1.551v-0.355c0-2.797,2.202-5.072,4.999-5.072
				c2.798,0,5.001,2.275,5.001,5.072v0.356l-2.033,1.592L7.997,15.759z M5.478,13.685l2.525,0.541l2.439-0.503l1.101-0.896
				c-0.173-1.81-1.703-3.229-3.557-3.229s-3.383,1.42-3.556,3.23L5.478,13.685z"/>
			<path fill="#4D4D4D" d="M7.986,9.836c-1.661,0-3.011-1.352-3.011-3.013c0-1.659,1.351-3.01,3.011-3.01
				C9.648,3.813,11,5.164,11,6.823C11,8.484,9.648,9.836,7.986,9.836z M7.986,5.313c-0.833,0-1.511,0.678-1.511,1.51
				c0,0.834,0.678,1.513,1.511,1.513c0.834,0,1.513-0.679,1.513-1.513C9.5,5.991,8.821,5.313,7.986,5.313z"/>
		</g>
	</g>
</g>
</svg>
