<?xml version="1.0" encoding="utf-8"?>
<!-- Generator: Adobe Illustrator 15.0.0, SVG Export Plug-In . SVG Version: 6.00 Build 0)  -->
<!DOCTYPE svg PUBLIC "-//W3C//DTD SVG 1.1//EN" "http://www.w3.org/Graphics/SVG/1.1/DTD/svg11.dtd">
<svg version="1.1" id="Layer_1" xmlns="http://www.w3.org/2000/svg" xmlns:xlink="http://www.w3.org/1999/xlink" x="0px" y="0px"
	 width="16px" height="16px" viewBox="0 0 16 16" enable-background="new 0 0 16 16" xml:space="preserve">
<g>
	<g>
		<g>
			<g>
				<path fill="#4D4D4D" d="M11.992,11.51c-0.161,0-0.321-0.063-0.443-0.186c-0.245-0.244-0.245-0.641,0-0.887L13.986,8
					l-2.438-2.441c-0.245-0.244-0.245-0.641,0-0.887c0.245-0.244,0.642-0.244,0.887,0l2.881,2.885c0.245,0.244,0.245,0.641,0,0.887
					l-2.881,2.881C12.313,11.447,12.152,11.51,11.992,11.51L11.992,11.51z"/>
			</g>
			<g>
				<path fill="#4D4D4D" d="M4.008,11.51c-0.16,0-0.32-0.063-0.443-0.186L0.684,8.443c-0.245-0.246-0.245-0.643,0-0.887l2.881-2.885
					c0.245-0.244,0.642-0.244,0.887,0c0.245,0.246,0.245,0.643,0,0.887L2.014,8l2.438,2.438c0.245,0.246,0.245,0.643,0,0.887
					C4.329,11.447,4.169,11.51,4.008,11.51L4.008,11.51z"/>
			</g>
		</g>
		<g>
			<path fill="#4D4D4D" d="M5.65,14.949c-0.073,0-0.146-0.012-0.219-0.039c-0.325-0.121-0.49-0.482-0.369-0.807l4.7-12.645
				c0.12-0.326,0.48-0.49,0.806-0.369s0.49,0.48,0.37,0.807l-4.7,12.645C6.145,14.793,5.905,14.949,5.65,14.949L5.65,14.949z"/>
		</g>
	</g>
</g>
</svg>
