<?xml version="1.0" encoding="utf-8"?>
<!-- Generator: Adobe Illustrator 15.0.0, SVG Export Plug-In . SVG Version: 6.00 Build 0)  -->
<!DOCTYPE svg PUBLIC "-//W3C//DTD SVG 1.1//EN" "http://www.w3.org/Graphics/SVG/1.1/DTD/svg11.dtd">
<svg version="1.1" id="Layer_1" xmlns="http://www.w3.org/2000/svg" xmlns:xlink="http://www.w3.org/1999/xlink" x="0px" y="0px"
	 width="16px" height="16px" viewBox="0 0 16 16" enable-background="new 0 0 16 16" xml:space="preserve">
<g>
	<g>
		<path fill="#4D4D4D" d="M8.82,15.5H7.18c-0.599,0-1.086-0.488-1.086-1.086v-1.061l-0.509-0.197l-0.772,0.729
			c-0.409,0.408-1.126,0.408-1.535,0l-1.16-1.162c-0.205-0.203-0.318-0.477-0.318-0.768s0.113-0.564,0.32-0.77l0.748-0.748
			L2.648,9.934L1.586,9.906C0.987,9.906,0.5,9.418,0.5,8.82V7.18c0-0.6,0.487-1.086,1.086-1.086h1.063l0.196-0.508L2.117,4.813
			C1.912,4.609,1.799,4.336,1.799,4.045s0.113-0.564,0.32-0.77l1.158-1.16c0.408-0.408,1.127-0.408,1.536,0.002l0.749,0.75
			l0.5-0.221l0.031-1.061c0-0.6,0.487-1.086,1.086-1.086H8.82c0.6,0,1.087,0.486,1.087,1.086v1.061l0.509,0.197l0.771-0.729
			c0.206-0.205,0.479-0.316,0.769-0.316l0,0c0.29,0,0.562,0.111,0.768,0.316l1.161,1.162c0.203,0.203,0.316,0.477,0.316,0.768
			s-0.113,0.564-0.319,0.768l-0.749,0.75l0.221,0.5l1.062,0.031c0.599,0,1.085,0.486,1.085,1.086V8.82
			c0,0.598-0.486,1.086-1.085,1.086h-1.062l-0.198,0.51l0.728,0.771c0.205,0.203,0.318,0.477,0.318,0.768s-0.113,0.564-0.319,0.77
			l-1.157,1.16c-0.414,0.41-1.125,0.408-1.534,0l-0.753-0.752l-0.5,0.221l-0.03,1.061C9.907,15.012,9.42,15.5,8.82,15.5L8.82,15.5z
			 M7.37,14.223h1.261v-0.869c0-0.518,0.369-1.031,0.859-1.195l0.438-0.184c0.122-0.063,0.311-0.105,0.505-0.105
			c0.347,0,0.677,0.133,0.906,0.361l0.616,0.615l0.89-0.891l-0.616-0.615c-0.365-0.367-0.466-0.99-0.235-1.453l0.18-0.439
			c0.147-0.447,0.661-0.818,1.18-0.818h0.87v-1.26h-0.87c-0.519,0-1.032-0.369-1.196-0.861l-0.182-0.436
			c-0.211-0.42-0.111-1.045,0.253-1.412l0.617-0.615l-0.89-0.891L11.34,3.77c-0.359,0.357-0.996,0.463-1.454,0.236l-0.438-0.18
			c-0.447-0.148-0.817-0.662-0.817-1.18V1.775H7.37v0.871c0,0.518-0.37,1.031-0.861,1.195L6.072,4.023
			C5.95,4.086,5.761,4.129,5.566,4.129c-0.347,0-0.678-0.131-0.906-0.361L4.046,3.154L3.155,4.045L3.77,4.66
			c0.365,0.367,0.467,0.992,0.236,1.453L3.828,6.549C3.679,7,3.165,7.369,2.648,7.369H1.776v1.26h0.872
			c0.517,0,1.03,0.369,1.195,0.859L4.025,9.93c0.211,0.42,0.109,1.043-0.254,1.41l-0.616,0.615l0.891,0.891L4.66,12.23
			c0.355-0.357,0.997-0.465,1.453-0.236l0.438,0.18c0.458,0.15,0.819,0.654,0.819,1.18V14.223L7.37,14.223z M8,10.801
			c-1.543,0-2.8-1.256-2.8-2.801S6.457,5.199,8,5.199c1.545,0,2.801,1.256,2.801,2.801S9.545,10.801,8,10.801L8,10.801z M8,6.475
			C7.16,6.475,6.477,7.16,6.477,8S7.16,9.523,8,9.523C8.842,9.523,9.524,8.84,9.524,8S8.842,6.475,8,6.475L8,6.475z"/>
	</g>
</g>
</svg>
