<?xml version="1.0" encoding="UTF-8" standalone="no"?><!DOCTYPE svg PUBLIC "-//W3C//DTD SVG 1.1//EN" "http://www.w3.org/Graphics/SVG/1.1/DTD/svg11.dtd"><svg width="100%" height="100%" viewBox="0 0 67 67" version="1.1" xmlns="http://www.w3.org/2000/svg" xmlns:xlink="http://www.w3.org/1999/xlink" xml:space="preserve" xmlns:serif="http://www.serif.com/" style="fill-rule:evenodd;clip-rule:evenodd;stroke-linejoin:round;stroke-miterlimit:2;"><path d="M53.13,41.314c-0.157,0 -0.321,-0.029 -0.485,-0.089c-8.874,-3.419 -18.569,-4.574 -28.009,-3.322c-0.72,0.081 -1.413,-0.418 -1.51,-1.158c-0.101,-0.736 0.418,-1.416 1.158,-1.513c9.889,-1.306 20.032,-0.104 29.328,3.478c0.694,0.268 1.042,1.048 0.774,1.741c-0.204,0.536 -0.717,0.863 -1.256,0.863Z" style="fill:#999;fill-rule:nonzero;"/><path d="M4.775,44.207c-0.485,-0 -0.947,-0.261 -1.188,-0.713c-0.352,-0.656 -0.101,-1.473 0.559,-1.818c2.162,-1.145 4.415,-2.169 6.708,-3.043c0.696,-0.265 1.476,0.077 1.737,0.777c0.268,0.696 -0.083,1.473 -0.777,1.734c-2.189,0.837 -4.341,1.814 -6.403,2.905c-0.211,0.108 -0.429,0.158 -0.636,0.158Z" style="fill:#999;fill-rule:nonzero;"/><path d="M40.49,60.209l-0.003,-0c-0.743,-0 -1.339,-0.606 -1.339,-1.349c0.063,-18.935 -9.229,-36.62 -24.853,-47.312c-0.616,-0.419 -0.766,-1.259 -0.351,-1.871c0.425,-0.613 1.265,-0.767 1.871,-0.352c16.363,11.198 26.095,29.717 26.027,49.544c-0.006,0.743 -0.609,1.34 -1.352,1.34Z" style="fill:#999;fill-rule:nonzero;"/><path d="M37.136,19.191c-0.258,-0 -0.519,-0.074 -0.754,-0.228c-5.526,-3.726 -10.357,-8.319 -14.364,-13.651c-0.445,-0.597 -0.331,-1.437 0.265,-1.885c0.599,-0.453 1.439,-0.325 1.888,0.267c3.829,5.092 8.442,9.481 13.718,13.036c0.623,0.415 0.784,1.256 0.368,1.868c-0.264,0.385 -0.689,0.593 -1.121,0.593Z" style="fill:#999;fill-rule:nonzero;"/><path d="M61.075,28.523c-0.071,0 -0.138,-0.003 -0.204,-0.017c-4.45,-0.672 -8.835,-1.854 -13.033,-3.511c-0.686,-0.274 -1.027,-1.054 -0.757,-1.747c0.275,-0.69 1.062,-1.038 1.745,-0.757c4.007,1.584 8.195,2.712 12.443,3.354c0.733,0.11 1.241,0.797 1.125,1.533c-0.094,0.666 -0.667,1.145 -1.319,1.145Z" style="fill:#999;fill-rule:nonzero;"/><path d="M42.639,28.48c-4.207,-0 -7.622,-3.421 -7.622,-7.626c0,-4.208 3.418,-7.626 7.622,-7.626c4.205,0 7.63,3.418 7.63,7.626c-0,4.205 -3.422,7.626 -7.63,7.626Zm0,-12.56c-2.718,-0 -4.931,2.213 -4.931,4.934c-0,2.722 2.213,4.934 4.931,4.934c2.722,0 4.938,-2.212 4.938,-4.934c0,-2.721 -2.212,-4.934 -4.938,-4.934Z" style="fill:#999;fill-rule:nonzero;"/><path d="M58.791,50.688c-4.204,-0 -7.622,-3.418 -7.622,-7.626c0,-4.208 3.418,-7.626 7.622,-7.626c4.205,-0 7.63,3.418 7.63,7.626c-0,4.208 -3.425,7.626 -7.63,7.626Zm0,-12.561c-2.718,0 -4.93,2.214 -4.93,4.935c-0,2.722 2.212,4.935 4.93,4.935c2.722,-0 4.938,-2.213 4.938,-4.935c0,-2.721 -2.213,-4.935 -4.938,-4.935Z" style="fill:#999;fill-rule:nonzero;"/><path d="M32.125,64.516c-17.626,0 -31.967,-14.341 -31.967,-31.965c0,-17.626 14.341,-31.97 31.967,-31.97c17.628,0 31.972,14.341 31.972,31.97c0,1.579 -0.147,3.243 -0.442,5.081l-5.315,-0.857c0.25,-1.546 0.371,-2.929 0.371,-4.224c-0,-14.659 -11.931,-26.584 -26.587,-26.584c-14.658,0 -26.583,11.925 -26.583,26.584c0,14.659 11.928,26.583 26.584,26.583c8.864,-0 17.113,-4.396 22.07,-11.76l4.462,3.002c-5.955,8.855 -15.874,14.14 -26.533,14.14l0.001,0Z" style="fill:#999;fill-rule:nonzero;"/><path d="M18.078,46.316c-4.208,-0 -7.622,-3.418 -7.622,-7.626c-0,-4.205 3.418,-7.626 7.622,-7.626c4.204,0 7.629,3.421 7.629,7.626c-0.003,4.205 -3.425,7.626 -7.629,7.626Zm-0,-12.56c-2.718,-0 -4.931,2.213 -4.931,4.934c0,2.722 2.213,4.934 4.931,4.934c2.722,0 4.938,-2.212 4.938,-4.934c-0.003,-2.721 -2.216,-4.934 -4.938,-4.934Z" style="fill:#999;fill-rule:nonzero;"/></svg>