<?xml version="1.0" encoding="utf-8"?>
<!-- Generator: Adobe Illustrator 15.0.0, SVG Export Plug-In . SVG Version: 6.00 Build 0)  -->
<!DOCTYPE svg PUBLIC "-//W3C//DTD SVG 1.1//EN" "http://www.w3.org/Graphics/SVG/1.1/DTD/svg11.dtd">
<svg version="1.1" id="Layer_1" xmlns="http://www.w3.org/2000/svg" xmlns:xlink="http://www.w3.org/1999/xlink" x="0px" y="0px"
	 width="16px" height="16px" viewBox="0 0 16 16" enable-background="new 0 0 16 16" xml:space="preserve">
<g>
	<g>
		<g>
			<path fill="#4D4D4D" d="M13.955,13.44H2.047c-0.854,0-1.547-0.692-1.547-1.546V4.104c0-0.852,0.693-1.545,1.547-1.545h11.908
				c0.852,0,1.545,0.693,1.545,1.545v7.791C15.5,12.748,14.807,13.44,13.955,13.44L13.955,13.44z M2.047,3.869
				c-0.13,0-0.236,0.105-0.236,0.234v7.791c0,0.129,0.106,0.234,0.236,0.234h11.908c0.128,0,0.234-0.105,0.234-0.234V4.104
				c0-0.129-0.106-0.234-0.234-0.234H2.047L2.047,3.869z"/>
		</g>
		<g>
			<path fill="#4D4D4D" d="M13.955,13.113H2.047c-0.502,0-0.959-0.316-1.138-0.788c-0.048-0.127-0.012-0.271,0.089-0.36l4.647-4.146
				c0.136-0.12,0.343-0.107,0.463,0.027s0.108,0.342-0.026,0.462l-4.448,3.966c0.106,0.114,0.255,0.183,0.413,0.183h11.908
				c0.157,0,0.306-0.068,0.41-0.183L9.866,8.263C9.731,8.143,9.72,7.936,9.841,7.801c0.119-0.136,0.326-0.147,0.462-0.027
				l4.701,4.191c0.101,0.09,0.135,0.233,0.088,0.36C14.913,12.797,14.457,13.113,13.955,13.113L13.955,13.113z"/>
		</g>
		<g>
			<path fill="#4D4D4D" d="M8,10.167c-0.077,0-0.156-0.028-0.218-0.083l-6.784-6.05c-0.101-0.091-0.137-0.233-0.089-0.36
				c0.179-0.471,0.636-0.787,1.138-0.787h11.908c0.502,0,0.958,0.316,1.137,0.787c0.047,0.127,0.013,0.27-0.088,0.36l-6.785,6.05
				C8.157,10.139,8.078,10.167,8,10.167L8,10.167z M1.635,3.725L8,9.4l6.365-5.677c-0.104-0.112-0.253-0.182-0.41-0.182H2.047
				C1.889,3.542,1.74,3.611,1.635,3.725L1.635,3.725z"/>
		</g>
	</g>
</g>
</svg>
