<?xml version="1.0" encoding="utf-8"?>
<!-- Generator: Adobe Illustrator 15.0.0, SVG Export Plug-In . SVG Version: 6.00 Build 0)  -->
<!DOCTYPE svg PUBLIC "-//W3C//DTD SVG 1.1//EN" "http://www.w3.org/Graphics/SVG/1.1/DTD/svg11.dtd">
<svg version="1.1" id="Layer_1" xmlns="http://www.w3.org/2000/svg" xmlns:xlink="http://www.w3.org/1999/xlink" x="0px" y="0px"
	 width="16px" height="16px" viewBox="0 0 16 16" enable-background="new 0 0 16 16" xml:space="preserve">
<g>
	<g>
		<g>
			<path fill="#4D4D4D" d="M7.888,8.709h-5.16c-0.355,0-0.642-0.287-0.642-0.643V2.684c0-0.355,0.286-0.643,0.642-0.643h5.16
				c0.355,0,0.644,0.287,0.644,0.643v5.383C8.531,8.422,8.243,8.709,7.888,8.709L7.888,8.709z M3.371,7.424h3.874V3.326H3.371V7.424
				L3.371,7.424z"/>
		</g>
		<g>
			<path fill="#4D4D4D" d="M13.271,10.799h-6.83c-0.355,0-0.643-0.287-0.643-0.643s0.287-0.643,0.643-0.643h5.757l-0.934-1.746
				c-0.101-0.189-0.101-0.416,0-0.605l0.934-1.746H7.888c-0.354,0-0.643-0.289-0.643-0.643c0-0.355,0.288-0.645,0.643-0.645h5.384
				c0.227,0,0.435,0.119,0.552,0.313c0.115,0.193,0.122,0.436,0.015,0.635l-1.279,2.389l1.279,2.389
				c0.107,0.199,0.101,0.439-0.015,0.633C13.706,10.68,13.498,10.799,13.271,10.799L13.271,10.799z"/>
		</g>
		<g>
			<path fill="#4D4D4D" d="M3.745,15.5c-0.356,0-0.644-0.287-0.644-0.643V8.215c0-0.355,0.287-0.643,0.644-0.643
				c0.354,0,0.643,0.287,0.643,0.643v6.643C4.388,15.213,4.1,15.5,3.745,15.5L3.745,15.5z"/>
		</g>
		<g>
			<path fill="#4D4D4D" d="M3.745,2.855c-0.356,0-0.644-0.287-0.644-0.643v-1.07c0-0.355,0.287-0.643,0.644-0.643
				c0.354,0,0.643,0.287,0.643,0.643v1.07C4.388,2.568,4.1,2.855,3.745,2.855L3.745,2.855z"/>
		</g>
		<g>
			<path fill="#4D4D4D" d="M6.441,10.799c-0.355,0-0.643-0.287-0.643-0.643V8.199c0-0.354,0.287-0.643,0.643-0.643
				s0.643,0.289,0.643,0.643v1.957C7.084,10.512,6.797,10.799,6.441,10.799L6.441,10.799z"/>
		</g>
	</g>
</g>
</svg>
