<?xml version="1.0" encoding="UTF-8" standalone="no"?><!DOCTYPE svg PUBLIC "-//W3C//DTD SVG 1.1//EN" "http://www.w3.org/Graphics/SVG/1.1/DTD/svg11.dtd"><svg width="16px" height="16px" viewBox="0 0 16 16" version="1.1" xmlns="http://www.w3.org/2000/svg" xmlns:xlink="http://www.w3.org/1999/xlink" xml:space="preserve" xmlns:serif="http://www.serif.com/" style="fill-rule:evenodd;clip-rule:evenodd;stroke-linejoin:round;stroke-miterlimit:2;"><path d="M12.751,9.915c-0.038,0 -0.077,-0.007 -0.116,-0.021c-2.13,-0.821 -4.457,-1.098 -6.722,-0.797c-0.173,0.019 -0.339,-0.101 -0.363,-0.278c-0.024,-0.177 0.101,-0.34 0.278,-0.363c2.373,-0.314 4.808,-0.025 7.039,0.834c0.166,0.065 0.25,0.252 0.186,0.418c-0.049,0.129 -0.172,0.207 -0.302,0.207Z" style="fill:#999;fill-rule:nonzero;"/><path d="M1.146,10.61c-0.116,-0 -0.227,-0.063 -0.285,-0.171c-0.085,-0.158 -0.024,-0.354 0.134,-0.437c0.519,-0.275 1.06,-0.52 1.61,-0.73c0.167,-0.064 0.354,0.018 0.417,0.186c0.064,0.167 -0.02,0.354 -0.187,0.417c-0.525,0.2 -1.042,0.435 -1.536,0.697c-0.051,0.026 -0.103,0.038 -0.153,0.038Z" style="fill:#999;fill-rule:nonzero;"/><path d="M9.718,14.45l-0.001,0c-0.178,0 -0.322,-0.145 -0.322,-0.324c0.016,-4.544 -2.215,-8.788 -5.964,-11.355c-0.148,-0.1 -0.184,-0.302 -0.085,-0.449c0.102,-0.147 0.304,-0.184 0.45,-0.084c3.927,2.687 6.262,7.132 6.246,11.891c-0.001,0.178 -0.146,0.321 -0.324,0.321Z" style="fill:#999;fill-rule:nonzero;"/><path d="M8.913,4.606c-0.062,-0 -0.125,-0.018 -0.181,-0.055c-1.327,-0.894 -2.486,-1.996 -3.448,-3.276c-0.107,-0.143 -0.079,-0.345 0.064,-0.453c0.144,-0.108 0.345,-0.077 0.453,0.065c0.919,1.222 2.026,2.275 3.292,3.128c0.15,0.1 0.188,0.302 0.089,0.448c-0.064,0.093 -0.166,0.143 -0.269,0.143Z" style="fill:#999;fill-rule:nonzero;"/><path d="M14.658,6.846c-0.017,-0 -0.033,-0.001 -0.049,-0.004c-1.068,-0.162 -2.12,-0.446 -3.128,-0.843c-0.164,-0.066 -0.246,-0.253 -0.181,-0.419c0.065,-0.166 0.254,-0.25 0.418,-0.182c0.962,0.38 1.967,0.651 2.987,0.805c0.175,0.026 0.297,0.191 0.27,0.368c-0.023,0.16 -0.161,0.275 -0.317,0.275Z" style="fill:#999;fill-rule:nonzero;"/><path d="M10.233,6.835c-1.009,0 -1.829,-0.821 -1.829,-1.83c0,-1.01 0.82,-1.83 1.829,-1.83c1.009,-0 1.831,0.82 1.831,1.83c0,1.009 -0.821,1.83 -1.831,1.83Zm0,-3.014c-0.652,-0 -1.183,0.531 -1.183,1.184c-0,0.653 0.531,1.184 1.183,1.184c0.654,0 1.186,-0.531 1.186,-1.184c-0,-0.653 -0.532,-1.184 -1.186,-1.184Z" style="fill:#999;fill-rule:nonzero;"/><path d="M14.11,12.165c-1.009,0 -1.829,-0.82 -1.829,-1.83c-0,-1.01 0.82,-1.83 1.829,-1.83c1.009,-0 1.831,0.82 1.831,1.83c-0,1.01 -0.822,1.83 -1.831,1.83Zm-0,-3.014c-0.652,-0 -1.183,0.531 -1.183,1.184c-0,0.653 0.531,1.184 1.183,1.184c0.653,0 1.185,-0.531 1.185,-1.184c-0,-0.653 -0.531,-1.184 -1.185,-1.184Z" style="fill:#999;fill-rule:nonzero;"/><path d="M7.71,15.484c-4.23,-0 -7.672,-3.442 -7.672,-7.672c0,-4.23 3.442,-7.673 7.672,-7.673c4.231,0 7.673,3.442 7.673,7.673c0,0.379 -0.035,0.779 -0.106,1.22l-1.275,-0.206c0.06,-0.371 0.089,-0.703 0.089,-1.014c-0,-3.518 -2.864,-6.38 -6.381,-6.38c-3.518,0 -6.38,2.862 -6.38,6.38c-0,3.518 2.863,6.38 6.38,6.38c2.127,0 4.107,-1.055 5.297,-2.822l1.071,0.72c-1.429,2.125 -3.81,3.394 -6.368,3.394l-0,-0Z" style="fill:#999;fill-rule:nonzero;"/><path d="M4.339,11.116c-1.01,-0 -1.83,-0.82 -1.83,-1.83c0,-1.01 0.821,-1.831 1.83,-1.831c1.009,0 1.831,0.821 1.831,1.831c-0.001,1.009 -0.822,1.83 -1.831,1.83Zm-0,-3.015c-0.653,0 -1.184,0.531 -1.184,1.185c0,0.653 0.531,1.184 1.184,1.184c0.653,-0 1.185,-0.531 1.185,-1.184c-0.001,-0.654 -0.532,-1.185 -1.185,-1.185Z" style="fill:#999;fill-rule:nonzero;"/></svg>