<?xml version="1.0" encoding="utf-8"?>
<!-- Generator: Adobe Illustrator 15.0.0, SVG Export Plug-In . SVG Version: 6.00 Build 0)  -->
<!DOCTYPE svg PUBLIC "-//W3C//DTD SVG 1.1//EN" "http://www.w3.org/Graphics/SVG/1.1/DTD/svg11.dtd">
<svg version="1.1" id="Layer_1" xmlns="http://www.w3.org/2000/svg" xmlns:xlink="http://www.w3.org/1999/xlink" x="0px" y="0px"
	 width="16px" height="16px" viewBox="0 0 16 16" enable-background="new 0 0 16 16" xml:space="preserve">
<g>
	<g>
		<g>
			<g>
				<path fill="#4D4D4D" d="M3.907,12.559c-0.155,0-0.306-0.062-0.415-0.172c-0.119-0.119-0.181-0.282-0.171-0.45l0.152-2.584
					C3.482,9.21,3.543,9.074,3.645,8.972l7.699-7.7c0.11-0.11,0.259-0.172,0.415-0.172l0,0c0.156,0,0.306,0.062,0.415,0.172
					l2.432,2.431c0.11,0.109,0.172,0.26,0.172,0.415s-0.062,0.306-0.172,0.415l-7.7,7.703c-0.102,0.102-0.237,0.162-0.381,0.17
					l-2.583,0.152C3.93,12.559,3.919,12.559,3.907,12.559L3.907,12.559z M4.633,9.646l-0.101,1.701l1.7-0.101l7.126-7.128
					l-1.6-1.601L4.633,9.646L4.633,9.646z"/>
			</g>
			<g>
				<path fill="#4D4D4D" d="M12.819,5.538c-0.075,0-0.15-0.028-0.208-0.086l-2.186-2.186c-0.114-0.115-0.114-0.301,0-0.415
					c0.115-0.114,0.301-0.114,0.415,0l2.186,2.186c0.115,0.114,0.115,0.3,0,0.415C12.97,5.51,12.895,5.538,12.819,5.538
					L12.819,5.538z"/>
			</g>
			<path fill="#4D4D4D" d="M4.312,10.161c-0.05,0-0.1,0.002-0.149,0.007s-0.092,0.021-0.138,0.028l-0.105,1.788l1.716-0.104
				c0.015-0.064,0.031-0.13,0.04-0.198C5.752,10.812,5.153,10.161,4.312,10.161L4.312,10.161z"/>
		</g>
		<g>
			<path fill="#4D4D4D" d="M14.412,15H1.588C1.263,15,1,14.737,1,14.413V1.587C1,1.263,1.263,1,1.588,1h6.363
				c0.324,0,0.588,0.263,0.588,0.587S8.275,2.175,7.951,2.175H2.175v11.65h11.65V8.048c0-0.324,0.263-0.588,0.587-0.588
				C14.737,7.46,15,7.724,15,8.048v6.365C15,14.737,14.737,15,14.412,15L14.412,15z"/>
		</g>
	</g>
</g>
</svg>
