<?xml version="1.0" encoding="UTF-8" standalone="no"?><!DOCTYPE svg PUBLIC "-//W3C//DTD SVG 1.1//EN" "http://www.w3.org/Graphics/SVG/1.1/DTD/svg11.dtd"><svg width="100%" height="100%" viewBox="0 0 84 84" version="1.1" xmlns="http://www.w3.org/2000/svg" xmlns:xlink="http://www.w3.org/1999/xlink" xml:space="preserve" xmlns:serif="http://www.serif.com/" style="fill-rule:evenodd;clip-rule:evenodd;stroke-linejoin:round;stroke-miterlimit:2;"><g><path d="M65.933,52.577c-0.196,0 -0.4,-0.037 -0.604,-0.112c-11.046,-4.255 -23.112,-5.692 -34.862,-4.134c-0.896,0.1 -1.759,-0.521 -1.88,-1.441c-0.125,-0.917 0.521,-1.763 1.442,-1.884c12.308,-1.625 24.933,-0.129 36.504,4.329c0.863,0.334 1.296,1.305 0.963,2.167c-0.254,0.667 -0.892,1.075 -1.563,1.075Z" style="fill:#999;fill-rule:nonzero;"/></g><g><path d="M5.746,56.177c-0.604,0 -1.179,-0.325 -1.479,-0.887c-0.438,-0.817 -0.125,-1.834 0.696,-2.263c2.691,-1.425 5.495,-2.7 8.35,-3.787c0.866,-0.33 1.837,0.095 2.162,0.966c0.333,0.867 -0.104,1.834 -0.967,2.159c-2.725,1.041 -5.404,2.258 -7.97,3.616c-0.263,0.134 -0.534,0.196 -0.792,0.196Z" style="fill:#999;fill-rule:nonzero;"/></g><g><path d="M50.2,76.094l-0.004,-0c-0.925,-0 -1.667,-0.754 -1.667,-1.679c0.079,-23.567 -11.487,-45.58 -30.933,-58.888c-0.767,-0.521 -0.954,-1.567 -0.438,-2.329c0.529,-0.763 1.575,-0.954 2.329,-0.438c20.367,13.938 32.48,36.988 32.396,61.667c-0.008,0.925 -0.758,1.667 -1.683,1.667Z" style="fill:#999;fill-rule:nonzero;"/></g><g><path d="M46.025,25.04c-0.321,-0 -0.646,-0.092 -0.938,-0.284c-6.879,-4.637 -12.891,-10.354 -17.879,-16.991c-0.554,-0.742 -0.412,-1.788 0.33,-2.346c0.745,-0.563 1.791,-0.404 2.35,0.333c4.766,6.338 10.508,11.8 17.075,16.225c0.775,0.517 0.975,1.563 0.458,2.325c-0.329,0.479 -0.858,0.738 -1.396,0.738Z" style="fill:#999;fill-rule:nonzero;"/></g><g><path d="M75.821,36.656c-0.088,0 -0.171,-0.004 -0.254,-0.021c-5.538,-0.837 -10.996,-2.308 -16.221,-4.37c-0.854,-0.342 -1.279,-1.313 -0.942,-2.175c0.342,-0.859 1.321,-1.292 2.171,-0.942c4.988,1.971 10.2,3.375 15.488,4.175c0.912,0.137 1.545,0.992 1.4,1.908c-0.117,0.829 -0.83,1.425 -1.642,1.425Z" style="fill:#999;fill-rule:nonzero;"/></g><g><path d="M52.875,36.602c-5.237,0 -9.487,-4.258 -9.487,-9.492c-0,-5.237 4.254,-9.491 9.487,-9.491c5.233,-0 9.496,4.254 9.496,9.491c-0,5.234 -4.259,9.492 -9.496,9.492Zm0,-15.633c-3.383,-0 -6.138,2.754 -6.138,6.141c0,3.388 2.755,6.142 6.138,6.142c3.388,0 6.146,-2.754 6.146,-6.142c-0,-3.387 -2.754,-6.141 -6.146,-6.141Z" style="fill:#999;fill-rule:nonzero;"/></g><g><path d="M72.979,64.244c-5.233,-0 -9.487,-4.254 -9.487,-9.492c-0,-5.237 4.254,-9.492 9.487,-9.492c5.234,0 9.496,4.255 9.496,9.492c0,5.238 -4.262,9.492 -9.496,9.492Zm0,-15.634c-3.383,0 -6.137,2.755 -6.137,6.142c-0,3.388 2.754,6.142 6.137,6.142c3.388,-0 6.146,-2.754 6.146,-6.142c0,-3.387 -2.754,-6.142 -6.146,-6.142Z" style="fill:#999;fill-rule:nonzero;"/></g><g><path d="M39.788,81.456c-21.938,0 -39.788,-17.85 -39.788,-39.787c0,-21.938 17.85,-39.792 39.788,-39.792c21.941,0 39.795,17.85 39.795,39.792c0,1.966 -0.183,4.037 -0.55,6.325l-6.616,-1.067c0.312,-1.925 0.462,-3.646 0.462,-5.258c0,-18.246 -14.85,-33.088 -33.092,-33.088c-18.245,0 -33.087,14.842 -33.087,33.088c-0,18.246 14.846,33.087 33.088,33.087c11.033,0 21.3,-5.471 27.47,-14.637l5.554,3.737c-7.412,11.021 -19.758,17.6 -33.025,17.6Z" style="fill:#999;fill-rule:nonzero;"/></g><g><path d="M22.304,58.802c-5.237,0 -9.487,-4.254 -9.487,-9.492c-0,-5.233 4.254,-9.491 9.487,-9.491c5.233,-0 9.496,4.258 9.496,9.491c-0.004,5.234 -4.263,9.492 -9.496,9.492Zm0,-15.633c-3.383,-0 -6.137,2.754 -6.137,6.141c-0,3.388 2.754,6.142 6.137,6.142c3.388,0 6.146,-2.754 6.146,-6.142c-0.004,-3.387 -2.758,-6.141 -6.146,-6.141Z" style="fill:#999;fill-rule:nonzero;"/></g></svg>