<?xml version="1.0" encoding="utf-8"?>
<!-- Generator: Adobe Illustrator 15.0.0, SVG Export Plug-In . SVG Version: 6.00 Build 0)  -->
<!DOCTYPE svg PUBLIC "-//W3C//DTD SVG 1.1//EN" "http://www.w3.org/Graphics/SVG/1.1/DTD/svg11.dtd">
<svg version="1.1" id="Layer_1" xmlns="http://www.w3.org/2000/svg" xmlns:xlink="http://www.w3.org/1999/xlink" x="0px" y="0px"
	 width="16px" height="16px" viewBox="0 0 16 16" enable-background="new 0 0 16 16" xml:space="preserve">
<g>
	<g>
		<g>
			<path fill="#4D4D4D" d="M15.092,7.719c-0.168,0-0.303-0.136-0.303-0.304c0-3.479-2.83-6.308-6.309-6.308
				c-0.168,0-0.305-0.136-0.305-0.304C8.176,0.636,8.313,0.5,8.48,0.5c3.813,0,6.916,3.102,6.916,6.915
				C15.396,7.583,15.26,7.719,15.092,7.719L15.092,7.719z"/>
		</g>
		<g>
			<path fill="#4D4D4D" d="M13.15,7.719c-0.168,0-0.303-0.136-0.303-0.304c0-2.408-1.959-4.366-4.367-4.366
				c-0.168,0-0.305-0.136-0.305-0.304S8.313,2.442,8.48,2.442c2.742,0,4.973,2.231,4.973,4.973
				C13.453,7.583,13.318,7.719,13.15,7.719L13.15,7.719z"/>
		</g>
		<g>
			<path fill="#4D4D4D" d="M3.561,15.146c-0.789,0-1.533-0.308-2.09-0.867c-0.559-0.557-0.867-1.299-0.867-2.089
				c0-0.79,0.309-1.532,0.867-2.09l1.447-1.446c0.236-0.236,0.623-0.237,0.859,0c0.236,0.238,0.236,0.622,0,0.859L2.33,10.959
				C2,11.288,1.818,11.725,1.818,12.19c0,0.465,0.182,0.902,0.512,1.231c0.66,0.66,1.807,0.659,2.463,0l1.445-1.446
				c0.238-0.237,0.621-0.237,0.859,0c0.238,0.237,0.238,0.622,0,0.858L5.652,14.28C5.094,14.839,4.352,15.146,3.561,15.146
				L3.561,15.146z"/>
		</g>
		<g>
			<path fill="#4D4D4D" d="M7.117,13.247c-0.199,0-0.393-0.098-0.508-0.273c-1.006-1.533-2.295-2.822-3.83-3.831
				C2.523,8.975,2.434,8.646,2.564,8.372l2.656-5.527C5.297,2.688,5.436,2.57,5.605,2.523c0.168-0.047,0.348-0.019,0.496,0.078
				c2.822,1.854,5.195,4.226,7.051,7.05c0.096,0.146,0.123,0.327,0.076,0.496c-0.045,0.169-0.162,0.309-0.322,0.385l-5.525,2.656
				C7.295,13.228,7.207,13.247,7.117,13.247L7.117,13.247z M3.887,8.427c1.338,0.95,2.49,2.103,3.438,3.439l4.422-2.125
				C10.178,7.498,8.252,5.574,6.01,4.006L3.887,8.427L3.887,8.427z"/>
		</g>
		<g>
			<path fill="#4D4D4D" d="M6.889,15.5c-0.637,0-1.33-0.292-1.893-0.854C4.76,14.41,4.76,14.025,4.994,13.788
				c0.238-0.238,0.623-0.238,0.859-0.001c0.527,0.526,1.176,0.61,1.43,0.358c0.236-0.238,0.621-0.237,0.857,0
				c0.238,0.237,0.238,0.622,0,0.858C7.809,15.337,7.363,15.5,6.889,15.5L6.889,15.5z"/>
		</g>
	</g>
</g>
</svg>
