<?xml version="1.0" encoding="utf-8"?>
<!-- Generator: Adobe Illustrator 15.0.0, SVG Export Plug-In . SVG Version: 6.00 Build 0)  -->
<!DOCTYPE svg PUBLIC "-//W3C//DTD SVG 1.1//EN" "http://www.w3.org/Graphics/SVG/1.1/DTD/svg11.dtd">
<svg version="1.1" id="Layer_1" xmlns="http://www.w3.org/2000/svg" xmlns:xlink="http://www.w3.org/1999/xlink" x="0px" y="0px"
	 width="16px" height="16px" viewBox="0 0 16 16" enable-background="new 0 0 16 16" xml:space="preserve">
<g>
	<g>
		<path fill="#4D4D4D" d="M8.001,15.499L8.001,15.499c-0.369,0-0.715-0.143-0.976-0.404L0.898,8.968
			c-0.261-0.26-0.405-0.605-0.405-0.975c0.001-0.369,0.145-0.715,0.406-0.975l1.924-1.926c0.165-0.166,0.408-0.229,0.635-0.162
			c0.226,0.066,0.396,0.252,0.445,0.48C3.962,5.69,4.097,5.942,4.292,6.138c0.548,0.547,1.501,0.547,2.049,0
			c0.565-0.564,0.565-1.484,0-2.051c-0.196-0.195-0.445-0.33-0.724-0.389c-0.23-0.049-0.415-0.221-0.481-0.445
			S5.132,2.784,5.297,2.618L7.025,0.89c0.521-0.52,1.428-0.52,1.949,0l1.254,1.254c0.133-0.289,0.315-0.557,0.546-0.785
			c0.516-0.518,1.201-0.801,1.931-0.801s1.415,0.283,1.931,0.801c1.064,1.063,1.064,2.795,0,3.859
			c-0.23,0.23-0.496,0.414-0.786,0.547l1.252,1.254c0.261,0.26,0.404,0.605,0.405,0.975c0,0.369-0.145,0.715-0.406,0.975
			l-1.728,1.729c-0.165,0.168-0.409,0.229-0.635,0.162c-0.226-0.068-0.396-0.254-0.444-0.484c-0.058-0.275-0.193-0.525-0.391-0.723
			c-0.545-0.545-1.5-0.545-2.048,0c-0.564,0.564-0.564,1.484,0,2.049c0.197,0.197,0.447,0.332,0.724,0.389
			c0.229,0.051,0.415,0.221,0.482,0.447c0.066,0.225,0.005,0.469-0.163,0.635l-1.924,1.924C8.715,15.356,8.369,15.499,8.001,15.499
			L8.001,15.499z M3.068,6.661L1.804,7.925C1.78,7.95,1.774,7.976,1.774,7.993S1.78,8.038,1.804,8.06l6.128,6.131
			c0.047,0.045,0.089,0.047,0.136,0l1.266-1.266c-0.137-0.094-0.266-0.199-0.383-0.316c-1.064-1.066-1.064-2.797-0.001-3.863
			c0.517-0.514,1.201-0.799,1.931-0.799s1.415,0.285,1.931,0.799c0.118,0.119,0.225,0.248,0.318,0.383l1.067-1.066
			c0.023-0.023,0.029-0.051,0.029-0.068S14.22,7.95,14.196,7.925l-2.109-2.111c-0.189-0.189-0.241-0.477-0.129-0.721
			c0.111-0.244,0.356-0.393,0.632-0.371c0.428,0.031,0.845-0.115,1.141-0.41c0.564-0.564,0.564-1.484,0-2.049
			c-0.549-0.547-1.502-0.547-2.05,0c-0.294,0.295-0.443,0.711-0.41,1.139c0.021,0.268-0.127,0.521-0.371,0.633
			s-0.531,0.063-0.721-0.129l-2.11-2.109c-0.047-0.047-0.09-0.047-0.137,0L6.864,2.862c0.137,0.096,0.265,0.201,0.383,0.318
			c1.064,1.066,1.064,2.799,0,3.863C6.731,7.56,6.046,7.843,5.315,7.843c-0.729,0-1.414-0.283-1.931-0.799
			C3.268,6.925,3.161,6.796,3.068,6.661L3.068,6.661z"/>
	</g>
</g>
</svg>
