<?xml version="1.0" encoding="utf-8"?>
<!-- Generator: Adobe Illustrator 15.0.0, SVG Export Plug-In . SVG Version: 6.00 Build 0)  -->
<!DOCTYPE svg PUBLIC "-//W3C//DTD SVG 1.1//EN" "http://www.w3.org/Graphics/SVG/1.1/DTD/svg11.dtd">
<svg version="1.1" id="Layer_1" xmlns="http://www.w3.org/2000/svg" xmlns:xlink="http://www.w3.org/1999/xlink" x="0px" y="0px"
	 width="16px" height="16px" viewBox="0 0 16 16" enable-background="new 0 0 16 16" xml:space="preserve">
<g>
	<g>
		<g>
			<path fill="#4D4D4D" d="M1.63,15c-0.166,0-0.326-0.066-0.445-0.185c-0.127-0.127-0.194-0.303-0.184-0.483l0.189-3.201
				c0.009-0.154,0.074-0.299,0.184-0.408l9.538-9.539C11.031,1.066,11.191,1,11.359,1l0,0c0.168,0,0.328,0.066,0.447,0.185
				l3.01,3.01C14.934,4.313,15,4.473,15,4.64c0,0.167-0.065,0.328-0.184,0.446l-9.54,9.541c-0.109,0.109-0.255,0.175-0.408,0.184
				l-3.199,0.188C1.656,15,1.643,15,1.63,15L1.63,15z M2.434,11.445l-0.133,2.254l2.253-0.132l8.925-8.926l-2.12-2.119L2.434,11.445
				L2.434,11.445z"/>
		</g>
		<g>
			<path fill="#4D4D4D" d="M12.671,6.667c-0.16,0-0.322-0.062-0.444-0.185L9.518,3.775c-0.246-0.246-0.246-0.645,0-0.891
				s0.646-0.246,0.892,0l2.709,2.708c0.246,0.246,0.246,0.646,0,0.892C12.995,6.606,12.833,6.667,12.671,6.667L12.671,6.667z"/>
		</g>
		<g>
			<path fill="#4D4D4D" d="M3.824,12.808c-0.161,0-0.323-0.062-0.445-0.185c-0.246-0.246-0.246-0.645,0-0.891l7.446-7.447
				c0.246-0.246,0.646-0.246,0.892,0s0.246,0.645,0,0.891l-7.448,7.447C4.146,12.747,3.984,12.808,3.824,12.808L3.824,12.808z"/>
		</g>
		<path fill="#4D4D4D" d="M1.988,12.803c-0.042,0-0.086,0.002-0.13,0.006c-0.042,0.005-0.08,0.018-0.12,0.024l-0.091,1.553
			l1.489-0.09c0.013-0.056,0.027-0.113,0.034-0.172C3.238,13.368,2.718,12.803,1.988,12.803L1.988,12.803z"/>
	</g>
</g>
</svg>
