<?xml version="1.0" encoding="utf-8"?>
<!-- Generator: Adobe Illustrator 15.0.0, SVG Export Plug-In . SVG Version: 6.00 Build 0)  -->
<!DOCTYPE svg PUBLIC "-//W3C//DTD SVG 1.1//EN" "http://www.w3.org/Graphics/SVG/1.1/DTD/svg11.dtd">
<svg version="1.1" id="Layer_1" xmlns="http://www.w3.org/2000/svg" xmlns:xlink="http://www.w3.org/1999/xlink" x="0px" y="0px"
	 width="16px" height="16.004px" viewBox="0 0 16 16.004" enable-background="new 0 0 16 16.004" xml:space="preserve">
<g>
	<g>
		<g>
			<path fill="#4D4D4D" d="M7.087,15.502c-0.174,0-0.343-0.067-0.469-0.193c-0.192-0.19-0.247-0.476-0.143-0.724
				c0.491-1.161,0.36-2.503-0.333-3.568c-0.193-0.022-0.374-0.05-0.55-0.085c-0.264-0.052-0.467-0.257-0.52-0.518
				C5.038,10.24,5.01,10.058,4.989,9.861C3.936,9.178,2.559,9.046,1.416,9.525C1.171,9.629,0.884,9.574,0.695,9.383
				C0.507,9.194,0.449,8.908,0.554,8.66c0.254-0.605,0.615-1.144,1.075-1.605C2.7,5.985,4.189,5.451,5.717,5.604
				c0.438-0.948,1.031-1.802,1.78-2.544c1.622-1.625,3.787-2.558,5.938-2.558c0.478,0,0.952,0.047,1.41,0.138
				c0.261,0.052,0.465,0.257,0.516,0.519c0.508,2.536-0.42,5.354-2.418,7.354c-0.746,0.741-1.596,1.336-2.544,1.773
				c0.15,1.515-0.371,3.01-1.454,4.089c-0.452,0.458-0.996,0.82-1.605,1.076C7.258,15.485,7.175,15.502,7.087,15.502L7.087,15.502z
				 M6.3,9.704C6.384,9.713,6.467,9.72,6.553,9.726c0.19,0.014,0.365,0.108,0.479,0.26c0.747,0.987,1.109,2.188,1.051,3.382
				c0.843-0.889,1.192-2.134,0.939-3.354C8.957,9.698,9.129,9.38,9.431,9.263c0.972-0.381,1.841-0.949,2.578-1.687
				c1.571-1.573,2.364-3.723,2.13-5.712c-1.995-0.236-4.149,0.568-5.711,2.129C7.686,4.732,7.12,5.6,6.739,6.574
				c-0.117,0.3-0.432,0.471-0.749,0.407C4.785,6.733,3.52,7.083,2.637,7.918C3.835,7.861,5.053,8.241,6.016,8.97
				c0.153,0.115,0.251,0.289,0.264,0.479C6.283,9.537,6.293,9.622,6.3,9.704L6.3,9.704z"/>
		</g>
		<g>
			<path fill="#4D4D4D" d="M11.26,6.391c-0.439,0-0.852-0.171-1.165-0.482c-0.644-0.645-0.644-1.692-0.001-2.337
				c0.626-0.625,1.713-0.624,2.338,0c0.31,0.312,0.485,0.727,0.485,1.168s-0.176,0.857-0.485,1.168
				C12.119,6.219,11.703,6.391,11.26,6.391L11.26,6.391z M11.26,3.748c-0.264,0-0.511,0.104-0.699,0.291
				c-0.385,0.386-0.385,1.016,0.001,1.404c0.376,0.371,1.027,0.374,1.401-0.002c0.188-0.188,0.291-0.437,0.291-0.701
				c0-0.264-0.104-0.513-0.291-0.701C11.776,3.852,11.527,3.748,11.26,3.748L11.26,3.748z"/>
		</g>
		<g>
			<path fill="#4D4D4D" d="M3.751,13.236c-0.22,0-0.438-0.02-0.655-0.056c-0.14-0.023-0.249-0.132-0.273-0.271
				c-0.227-1.357,0.268-2.798,1.318-3.851c0.134-0.128,0.339-0.128,0.469,0c0.129,0.128,0.129,0.338,0,0.467
				c-0.842,0.84-1.265,1.958-1.165,3.035c1.081,0.101,2.194-0.327,3.033-1.167c0.129-0.127,0.339-0.127,0.467,0
				c0.13,0.129,0.13,0.338,0,0.467C6.062,12.745,4.902,13.236,3.751,13.236L3.751,13.236z"/>
		</g>
	</g>
</g>
</svg>
